<svg id="Layer_1" enable-background="new 0 0 512 512" height="512" viewBox="0 0 512 512" width="512" xmlns="http://www.w3.org/2000/svg"><path d="m482.114 120c-8.271 0-15-6.729-15-15v-45c0-33.084-26.916-60-60-60-17.142 0-33.503 7.357-44.888 20.186-11.376 12.819-16.725 30.005-14.673 47.15l74.625 172.666c19.439 0 37.75-7.347 51.859-20.88 14.881-14.274 23.077-33.495 23.077-54.121v-45h-15z" fill="#463f3f"/><path d="m152.002 20.186c-11.385-12.829-27.746-20.186-44.888-20.186-33.084 0-60 26.916-60 60v45c0 8.271-6.729 15-15 15h-15v45c0 41.649 33.741 75.002 74.936 75.001l74.625-172.666c2.051-17.145-3.297-34.33-14.673-47.149z" fill="#5b5555"/><path d="m227.114 265c-.413-.137-29.637-19.405-92.854-7.399l.1.513c1.827 8.611 2.753 17.657 2.753 26.887 0 44.199-20.554 75-39 75-18.386 0-35.684-28.709-38.56-63.998l-4.019-49.325-24.042 43.256c-40.812 73.418-2.935 160.061 75.723 160.061 30.352 0 60.884-13.679 83.748-34.969 23.312-21.707 36.15-48.583 36.15-75.675v-74.351z" fill="#ffe6b3"/><path d="m482.736 289.944-24.042-43.266-4.021 49.333c-2.875 35.284-20.173 63.989-38.559 63.989-18.446 0-39-30.801-39-75 0-9.223.916-18.234 2.722-26.785l.005-.02c.006-.027.012-.054.017-.082-20.843-4.616.763-1.098-92.743-14.113v95.35c0 27.375 9.763 53.823 27.492 74.472 19.521 22.738 46.819 36.178 77.587 36.178 34.696-.001 66.645-16.702 86.496-45.574 23.742-34.53 23.932-78.689 4.046-114.482z" fill="#ffca80"/><path d="m436.504 218.62c-4.1 29.3-30.81 51.38-62.05 51.38h-27.59c-16.37.09-29.75 13.55-29.75 30v212h-120v-212c0-16.54-13.46-30-30-30h-27.34c-31.26 0-57.94-22.09-62.05-51.38-3.58-25.4 9.25-49.72 30.88-61.43-.6-4.5-1.26-11.19-1.26-15.63 4.42-79.38 70.2-141.56 149.77-141.56 79.56 0 145.34 62.17 149.77 141.54 0 0 .04 5.97-1.26 15.65 21.63 11.71 34.46 36.03 30.88 61.43z" fill="#766e6e"/><path d="m405.624 157.19c1.3-9.68 1.26-15.65 1.26-15.65-4.43-79.37-70.21-141.54-149.77-141.54v512h60v-212c0-16.45 13.38-29.91 29.75-30h27.59c31.24 0 57.95-22.08 62.05-51.38 3.58-25.4-9.25-49.72-30.88-61.43z" fill="#5b5555"/><path d="m317.114 180v30c-24.3 0-33.43-12.17-39.47-20.22-4.9-6.51-7.35-9.78-20.53-9.78-13.17 0-15.63 3.27-20.53 9.79-6.05 8.05-15.19 20.21-39.47 20.21v-30c9.3 0 10.73-1.91 15.49-8.23 6.51-8.67 16.36-21.77 44.51-21.77 28.17 0 38.01 13.1 44.52 21.77 4.74 6.32 6.17 8.23 15.48 8.23z" fill="#5b5555"/><path d="m301.634 171.77c-6.51-8.67-16.35-21.77-44.52-21.77v30c13.18 0 15.63 3.27 20.53 9.78 6.04 8.05 15.17 20.22 39.47 20.22v-30c-9.31 0-10.74-1.91-15.48-8.23z" fill="#463f3f"/><path d="m167.114 120h30v30h-30z" fill="#5b5555"/><path d="m317.114 120h30v30h-30z" fill="#463f3f"/></svg>